<?xml version="1.0" standalone="no"?>
<!DOCTYPE svg PUBLIC "-//W3C//DTD SVG 20010904//EN"
 "http://www.w3.org/TR/2001/REC-SVG-20010904/DTD/svg10.dtd">
<svg version="1.0" xmlns="http://www.w3.org/2000/svg"
 width="1280.000000pt" height="721.000000pt" viewBox="0 0 1280.000000 721.000000"
 preserveAspectRatio="xMidYMid meet">
<g transform="translate(0.000000,721.000000) scale(0.100000,-0.100000)"
fill="#000000" stroke="none">
<path d="M1683 6810 c-358 -25 -662 -103 -860 -222 -126 -75 -255 -223 -310
-353 -91 -217 -73 -529 40 -714 l35 -56 -19 -95 c-40 -197 -36 -433 11 -658
78 -373 314 -808 625 -1149 41 -45 75 -84 75 -87 0 -3 -46 -63 -103 -134 -460
-571 -688 -1188 -626 -1693 9 -73 8 -96 -6 -145 -22 -79 -30 -280 -16 -374 26
-168 86 -284 206 -405 202 -202 515 -307 1030 -345 291 -22 386 -23 560 -6 94
8 231 21 305 26 509 40 904 143 1305 340 315 155 550 323 806 579 264 264 440
504 591 809 44 89 85 162 90 162 6 0 46 -27 90 -61 218 -163 463 -229 686
-183 160 33 315 126 469 281 50 51 96 93 101 93 5 0 26 -37 47 -82 278 -612
805 -1154 1422 -1462 420 -210 870 -321 1458 -361 50 -3 149 -16 220 -27 96
-16 177 -21 310 -22 186 -1 251 7 435 49 58 13 157 35 220 50 230 51 439 160
558 291 76 82 137 198 167 319 13 51 35 115 48 142 38 75 85 215 109 326 29
135 31 402 4 552 -77 427 -329 925 -668 1316 -26 30 -48 59 -48 63 0 4 41 53
91 109 185 208 318 404 434 642 232 472 275 924 129 1354 -27 79 -37 125 -40
195 -11 223 -72 375 -207 514 -296 305 -901 414 -1870 337 -550 -44 -928 -141
-1342 -345 -319 -157 -559 -331 -820 -594 -204 -205 -334 -371 -478 -611 -39
-65 -59 -90 -73 -89 -10 1 -75 13 -144 27 -378 79 -959 96 -1342 41 -62 -9
-122 -17 -132 -18 -14 -1 -36 28 -85 109 -438 730 -1114 1234 -1931 1439 -234
59 -457 92 -785 116 -199 15 -628 20 -772 10z"/>
</g>
</svg>
