<?xml version="1.0" standalone="no"?>
<!DOCTYPE svg PUBLIC "-//W3C//DTD SVG 20010904//EN"
 "http://www.w3.org/TR/2001/REC-SVG-20010904/DTD/svg10.dtd">
<svg version="1.0" xmlns="http://www.w3.org/2000/svg"
 width="640.000000pt" height="1280.000000pt" viewBox="0 0 640.000000 1280.000000"
 preserveAspectRatio="xMidYMid meet">
<metadata>
Created by potrace 1.15, written by Peter Selinger 2001-2017
</metadata>
<g transform="translate(0.000000,1280.000000) scale(0.100000,-0.100000)"
fill="#000000" stroke="none">
<path d="M1167 12789 c-213 -8 -218 -9 -251 -34 -44 -34 -69 -86 -74 -158 -4
-47 -8 -57 -21 -55 -11 2 -17 18 -21 57 -4 33 -12 58 -23 66 -10 7 -77 14
-184 19 -224 9 -210 24 -188 -202 14 -147 15 -207 6 -444 -6 -150 -20 -502
-31 -783 -30 -778 -59 -1509 -75 -1930 -15 -384 -33 -836 -60 -1537 -31 -810
-46 -1171 -60 -1540 -8 -211 -26 -675 -40 -1033 -14 -357 -34 -877 -45 -1155
-11 -278 -29 -739 -40 -1025 -11 -286 -25 -636 -31 -777 -5 -142 -6 -264 -2
-272 13 -23 284 -314 296 -319 22 -8 56 12 61 35 3 13 12 234 21 493 8 259 24
724 35 1035 11 311 33 959 50 1440 42 1237 50 1433 56 1439 7 7 452 46 457 41
3 -3 27 -248 56 -545 28 -297 145 -1537 261 -2755 116 -1218 215 -2271 222
-2340 l11 -125 181 -183 c100 -101 189 -188 199 -193 23 -13 54 -3 62 20 3 10
-37 466 -89 1012 -53 547 -143 1491 -201 2099 -59 608 -139 1449 -179 1870
-41 421 -72 767 -70 769 3 3 2616 200 2621 197 1 -1 -14 -174 -32 -386 -78
-875 -98 -1106 -175 -1980 -44 -503 -86 -978 -93 -1055 -8 -77 -10 -149 -7
-160 9 -26 276 -215 305 -215 12 0 27 6 33 13 7 7 31 246 57 543 25 291 81
941 125 1444 43 503 96 1111 116 1350 21 239 41 444 45 455 6 19 30 22 478 55
259 18 473 31 477 27 7 -6 11 -44 44 -382 182 -1879 221 -2284 230 -2365 5
-52 55 -565 110 -1140 56 -575 103 -1055 105 -1067 6 -25 384 -384 421 -397
19 -8 28 -6 41 7 19 19 27 -72 -117 1357 -33 327 -90 885 -125 1240 -36 355
-88 866 -115 1135 -27 270 -74 738 -105 1040 -31 303 -78 772 -105 1043 -28
270 -73 716 -100 990 -28 273 -71 695 -95 937 -24 242 -78 778 -120 1190 -42
413 -89 881 -105 1040 -16 160 -66 650 -110 1090 -45 440 -84 826 -87 858 -3
32 -12 65 -20 73 -20 19 -316 20 -353 1 -24 -13 -25 -16 -22 -100 l3 -87 -61
0 c-40 0 -62 4 -64 13 -2 6 -9 30 -15 52 -16 60 -65 128 -108 152 -37 20 -54
21 -713 27 -371 4 -871 11 -1110 16 -509 11 -1233 10 -1543 -1z m-176 -76 c34
-20 79 -103 79 -145 l0 -28 -90 0 c-49 0 -90 3 -90 6 0 16 45 161 53 172 12
15 13 15 48 -5z m-221 -4063 c50 -531 115 -1217 144 -1525 30 -308 51 -563 47
-566 -3 -4 -96 -9 -206 -13 l-200 -7 3 58 c1 32 16 459 32 948 17 490 39 1140
50 1445 11 305 20 589 21 630 1 68 2 71 10 35 5 -22 49 -474 99 -1005z"/>
</g>
</svg>
