<?xml version="1.0" standalone="no"?>
<!DOCTYPE svg PUBLIC "-//W3C//DTD SVG 20010904//EN"
 "http://www.w3.org/TR/2001/REC-SVG-20010904/DTD/svg10.dtd">
<svg version="1.0" xmlns="http://www.w3.org/2000/svg"
 width="808.000000pt" height="1280.000000pt" viewBox="0 0 808.000000 1280.000000"
 preserveAspectRatio="xMidYMid meet">
<g transform="translate(0.000000,1280.000000) scale(0.100000,-0.100000)"
fill="#000000" stroke="none">
<path d="M4000 12783 c-156 -30 -341 -113 -430 -194 l-30 -28 -2 -133 c-1 -73
-2 -186 -3 -251 -1 -64 -6 -121 -11 -126 -10 -11 -1811 4 -2314 19 -434 12
-704 12 -716 0 -7 -7 -45 -6 -115 2 -58 6 -112 9 -121 5 -23 -8 -30 -81 -26
-267 l3 -155 50 -3 c110 -5 122 -25 53 -88 l-42 -38 -2 -375 c-3 -407 -15
-561 -59 -746 -59 -248 -69 -315 -100 -720 -9 -110 -28 -297 -42 -415 -14
-118 -27 -266 -28 -329 -3 -111 -2 -114 27 -157 16 -24 33 -46 39 -49 17 -11
10 -36 -21 -75 -34 -43 -36 -56 -15 -80 14 -16 14 -21 -1 -53 -27 -56 -16 -67
64 -67 78 0 95 -11 90 -57 -2 -22 -18 -38 -73 -76 -38 -26 -88 -66 -110 -87
l-40 -40 -7 -313 c-5 -171 -8 -348 -8 -392 0 -68 15 -373 19 -383 0 -2 102 0
226 4 l225 7 6 -32 c8 -41 31 -46 148 -36 50 5 111 8 136 8 25 -1 416 -6 870
-12 966 -11 1750 -35 1765 -54 11 -13 5 -906 -14 -1967 -26 -1394 -32 -1690
-46 -2145 -30 -924 -35 -1164 -35 -1713 0 -623 -5 -578 80 -655 114 -102 316
-165 566 -174 173 -7 222 1 329 53 87 42 134 80 186 150 l39 54 15 327 c28
635 35 874 45 1486 9 585 31 1349 65 2252 29 767 54 1674 58 2125 l2 185 130
-2 c142 -3 376 -19 810 -58 775 -68 890 -75 1237 -75 145 0 337 -6 428 -13
220 -16 432 -16 491 2 47 13 47 13 53 65 3 28 23 188 43 356 41 341 50 597 22
695 -13 44 -20 53 -68 80 -54 30 -76 61 -61 84 4 7 36 31 71 54 104 68 99 37
99 580 l0 467 -22 10 c-13 5 -58 16 -100 25 l-78 16 0 53 0 53 48 18 c26 10
69 29 95 42 81 40 82 44 101 503 9 217 24 490 34 605 16 209 24 886 11 900 -4
3 -32 9 -63 12 -31 3 -56 10 -56 15 0 4 29 23 65 40 97 46 108 79 75 232 -16
76 -41 119 -80 138 -19 9 -107 27 -195 39 -148 20 -195 22 -621 20 -329 -2
-521 2 -670 13 -115 8 -373 18 -574 21 -201 3 -414 10 -475 15 -60 5 -227 14
-370 20 -143 6 -271 14 -284 16 l-24 5 5 222 5 222 -29 62 c-50 107 -176 192
-343 232 -193 45 -269 50 -405 24z"/>
</g>
</svg>
